<svg width="18" height="18" viewBox="0 0 18 18" fill="none" xmlns="http://www.w3.org/2000/svg">
<path fill-rule="evenodd" clip-rule="evenodd" d="M9.71 0.289169C11.6991 0.48808 13.5544 1.38167 14.95 2.81292C16.4704 4.35742 17.3693 6.40737 17.4753 8.57204C17.5814 10.7367 16.8871 12.8647 15.525 14.5504C14.2722 16.1077 12.5141 17.1776 10.5553 17.5748C8.59653 17.9721 6.5605 17.6716 4.8 16.7254C3.03572 15.7588 1.65841 14.2137 0.900001 12.3504C0.138196 10.4775 0.0367985 8.4011 0.612501 6.46292C1.18697 4.53228 2.40994 2.85897 4.075 1.72542C5.72606 0.599058 7.72123 0.0905291 9.71 0.289169ZM10.3 16.3504C11.9785 16.01 13.4859 15.095 14.5625 13.7629C15.7283 12.3141 16.3214 10.4876 16.2292 8.6303C16.137 6.77299 15.366 5.0142 14.0625 3.68792C12.8686 2.46918 11.2843 1.70882 9.58664 1.53974C7.88895 1.37065 6.18584 1.80361 4.775 2.76292C3.71305 3.49466 2.8555 4.48542 2.28359 5.64133C1.71169 6.79724 1.44437 8.08002 1.50696 9.36815C1.56955 10.6563 1.95998 11.9071 2.64126 13.0021C3.32254 14.0971 4.2721 15.0001 5.4 15.6254C6.89791 16.4338 8.63217 16.6904 10.3 16.3504ZM8.21875 6.50042H9.78125V5.25042H8.21875V6.50042ZM9.78125 7.75042V12.7504H8.21875V7.75042H9.78125Z" fill="#9798aa"/>
</svg>
