<svg width="18" height="18" viewBox="0 0 18 18" fill="none" xmlns="http://www.w3.org/2000/svg">
<g opacity="0.7">
<path d="M4.5 7.5H7.5" stroke="white" stroke-linecap="round" stroke-linejoin="round"/>
<path d="M15.6248 8.25H13.6733C12.3345 8.25 11.25 9.25725 11.25 10.5C11.25 11.7427 12.3352 12.75 13.6725 12.75H15.6248C15.6878 12.75 15.7185 12.75 15.7448 12.7485C16.1498 12.7237 16.4722 12.4245 16.4985 12.0488C16.5 12.0248 16.5 11.9955 16.5 11.9377V9.06225C16.5 9.0045 16.5 8.97525 16.4985 8.95125C16.4715 8.5755 16.1498 8.27625 15.7448 8.2515C15.7185 8.25 15.6878 8.25 15.6248 8.25Z" stroke="white"/>
<path d="M15.7238 8.25C15.6653 6.846 15.4778 5.985 14.871 5.379C13.9928 4.5 12.5783 4.5 9.75 4.5H7.5C4.67175 4.5 3.25725 4.5 2.379 5.379C1.5 6.25725 1.5 7.67175 1.5 10.5C1.5 13.3282 1.5 14.7427 2.379 15.621C3.25725 16.5 4.67175 16.5 7.5 16.5H9.75C12.5783 16.5 13.9928 16.5 14.871 15.621C15.4778 15.015 15.666 14.154 15.7238 12.75" stroke="white"/>
<path d="M4.5 4.50039L7.30125 2.64264C7.6952 2.3864 8.15505 2.25 8.625 2.25C9.09495 2.25 9.5548 2.3864 9.94875 2.64264L12.75 4.50039" stroke="white" stroke-linecap="round"/>
<path d="M13.4932 10.5H13.5014" stroke="white" stroke-linecap="round" stroke-linejoin="round"/>
</g>
</svg>
