<svg width="22" height="26" viewBox="0 0 22 26" fill="none" xmlns="http://www.w3.org/2000/svg">
<path fill-rule="evenodd" clip-rule="evenodd" d="M14 0.333333C14 0.244928 13.9649 0.160143 13.9024 0.0976311C13.8399 0.035119 13.7551 0 13.6667 0H4.33335C3.36089 0 2.42826 0.386309 1.74063 1.07394C1.053 1.76158 0.666687 2.69421 0.666687 3.66667V22.3333C0.666687 23.3058 1.053 24.2384 1.74063 24.9261C2.42826 25.6137 3.36089 26 4.33335 26H17.6667C18.6391 26 19.5718 25.6137 20.2594 24.9261C20.947 24.2384 21.3334 23.3058 21.3334 22.3333V9.196C21.3334 9.1076 21.2982 9.02281 21.2357 8.9603C21.1732 8.89779 21.0884 8.86267 21 8.86267H15C14.7348 8.86267 14.4804 8.75731 14.2929 8.56977C14.1054 8.38224 14 8.12788 14 7.86267V0.333333ZM15 13.3333C15.2652 13.3333 15.5196 13.4387 15.7071 13.6262C15.8947 13.8138 16 14.0681 16 14.3333C16 14.5985 15.8947 14.8529 15.7071 15.0404C15.5196 15.228 15.2652 15.3333 15 15.3333H7.00002C6.7348 15.3333 6.48045 15.228 6.29291 15.0404C6.10538 14.8529 6.00002 14.5985 6.00002 14.3333C6.00002 14.0681 6.10538 13.8138 6.29291 13.6262C6.48045 13.4387 6.7348 13.3333 7.00002 13.3333H15ZM15 18.6667C15.2652 18.6667 15.5196 18.772 15.7071 18.9596C15.8947 19.1471 16 19.4015 16 19.6667C16 19.9319 15.8947 20.1862 15.7071 20.3738C15.5196 20.5613 15.2652 20.6667 15 20.6667H7.00002C6.7348 20.6667 6.48045 20.5613 6.29291 20.3738C6.10538 20.1862 6.00002 19.9319 6.00002 19.6667C6.00002 19.4015 6.10538 19.1471 6.29291 18.9596C6.48045 18.772 6.7348 18.6667 7.00002 18.6667H15Z" fill="#3A3B58"/>
</svg>
