<svg width="28" height="28" viewBox="0 0 28 28" fill="none" xmlns="http://www.w3.org/2000/svg">
<path d="M19.3334 24.6667V27.3334H3.33335C1.86669 27.3334 0.666687 26.1334 0.666687 24.6667V7.33341H3.33335V24.6667H19.3334ZM24.6667 0.666748H8.66669C7.20002 0.666748 6.00002 1.86675 6.00002 3.33341V19.3334C6.00002 20.8001 7.20002 22.0001 8.66669 22.0001H24.6667C26.1334 22.0001 27.3334 20.8001 27.3334 19.3334V3.33341C27.3334 1.86675 26.1334 0.666748 24.6667 0.666748ZM18 16.6667H15.3334V14.0001H18V16.6667ZM20.4 9.73341C20 10.2667 19.4667 10.6667 18.9334 10.9334C18.6667 11.2001 18.4 11.3334 18.2667 11.6001C18 11.8667 18 12.2667 18 12.6667H15.3334C15.3334 12.0001 15.4667 11.4667 15.7334 11.0667C16 10.6667 16.4 10.2667 17.0667 9.86675C17.4667 9.60008 17.7334 9.33341 17.8667 9.06675C18.1334 8.80008 18.1334 8.40008 18.1334 8.00008C18.1334 7.60008 18 7.20008 17.7334 6.93341C17.4667 6.66675 17.2 6.53341 16.6667 6.53341C16.2667 6.53341 16 6.66675 15.7334 6.80008C15.4667 7.06675 15.3334 7.33341 15.3334 7.73341H12.8C12.8 6.66675 13.0667 5.86675 13.8667 5.33341C14.8 4.93341 15.7334 4.66675 16.9334 4.66675C18.1334 4.66675 19.2 4.93341 19.8667 5.60008C20.5334 6.26675 20.9334 7.06675 20.9334 8.00008C20.9334 8.66675 20.6667 9.20008 20.4 9.73341Z" fill="#3A3B58"/>
</svg>
